<?xml version="1.0" encoding="UTF-8" standalone="no"?>
<!DOCTYPE svg PUBLIC "-//W3C//DTD SVG 1.1//EN" "http://www.w3.org/Graphics/SVG/1.1/DTD/svg11.dtd">
<svg width="100%" height="100%" viewBox="0 0 1023 428" version="1.1" xmlns="http://www.w3.org/2000/svg" xmlns:xlink="http://www.w3.org/1999/xlink" xml:space="preserve" style="fill-rule:evenodd;clip-rule:evenodd;stroke-linejoin:round;stroke-miterlimit:1.41421;">
    <path d="M185.307,70.372C203.418,28.728 245.067,-0.303 293.319,0.002C345.268,0.331 389.135,34.563 404.051,81.567C410.012,80.667 416.118,80.22 422.335,80.259C434.894,80.338 446.981,82.399 458.3,86.144C472.236,58.481 500.982,39.567 534.031,39.776C557.849,39.927 579.307,49.98 594.52,66.004C611.923,53.797 633.114,46.631 655.965,46.631C704.23,46.631 745.086,78.601 758.493,122.502C768.348,118.534 779.121,116.381 790.394,116.452C797.528,116.497 804.45,117.43 811.055,119.147C823.363,87.603 854.153,65.32 890.01,65.547C924.078,65.762 953.316,86.237 966.361,115.465C981.712,102.654 1001.46,94.943 1023,94.943C1071.84,94.943 1111.48,134.59 1111.48,183.425C1111.48,217.25 1092.46,246.668 1064.54,261.555L1064.54,428L-12.617,428L-12.617,271.013C-55.485,264.882 -88.483,227.977 -88.483,183.425C-88.483,134.59 -48.835,94.943 0,94.943C18.743,94.943 36.134,100.783 50.448,110.742C63.069,77.273 95.408,53.441 133.27,53.441C152.713,53.441 170.699,59.726 185.307,70.372Z" style="fill:white;"/>
</svg>