<?xml version="1.0" encoding="UTF-8" standalone="no"?>
<svg width="915px" height="207px" viewBox="0 0 915 207" version="1.1" xmlns="http://www.w3.org/2000/svg" xmlns:xlink="http://www.w3.org/1999/xlink" xmlns:sketch="http://www.bohemiancoding.com/sketch/ns">
    <!-- Generator: Sketch 3.3.3 (12081) - http://www.bohemiancoding.com/sketch -->
    <title>Icons</title>
    <desc>Created with Sketch.</desc>
    <defs/>
    <g id="MeisterTask-Website" stroke="none" stroke-width="1" fill="none" fill-rule="evenodd" sketch:type="MSPage">
        <g id="Website" sketch:type="MSArtboardGroup" transform="translate(-54.000000, -1336.000000)" fill="#8A9499">
            <g id="Section" sketch:type="MSLayerGroup" transform="translate(0.000000, 887.000000)">
                <g id="Icons" transform="translate(51.000000, 443.000000)" sketch:type="MSShapeGroup">
                    <path d="M53.5,26 C52.672,26 52,26.672 52,27.5 L52,51.5 L40,51.5 L40,44 C40,39.857 36.643,36.5 32.5,36.5 C28.357,36.5 25,39.857 25,44 L25,51.5 L13,51.5 L13,27.5 C13,26.672 12.328,26 11.5,26 C10.672,26 10,26.672 10,27.5 L10,53 C10,53.828 10.672,54.5 11.5,54.5 L53.5,54.5 C54.328,54.5 55,53.828 55,53 L55,27.5 C55,26.672 54.328,26 53.5,26 Z M59.521,21.914 L34.021,6.914 C33.082,6.362 31.918,6.362 30.979,6.914 L5.479,21.914 C4.051,22.754 3.574,24.593 4.414,26.021 C5.254,27.452 7.096,27.929 8.521,27.086 L32.5,12.98 L56.479,27.086 C56.956,27.368 57.481,27.5 57.997,27.5 C59.026,27.5 60.028,26.972 60.586,26.021 C61.426,24.593 60.949,22.754 59.521,21.914 Z M25,33.5 L40,33.5 L40,24.5 L25,24.5 L25,33.5 Z M28,27.5 L37,27.5 L37,30.5 L28,30.5 L28,27.5 Z" id="Home-2" transform="translate(32.500000, 30.500000) rotate(-10.000000) translate(-32.500000, -30.500000) "/>
                    <path d="M916.5,46 L915,46 L915,13 C915,11.344 913.656,10 912,10 L867,10 C865.344,10 864,11.344 864,13 L864,46 L862.5,46 C860.016,46 858,48.016 858,50.5 C858,52.984 860.016,55 862.5,55 L916.5,55 C918.984,55 921,52.984 921,50.5 C921,48.016 918.984,46 916.5,46 L916.5,46 Z M867,13 L912,13 L912,46 L867,46 L867,13 Z M916.5,52 L862.5,52 C861.672,52 861,51.328 861,50.5 C861,49.672 861.672,49 862.5,49 L916.5,49 C917.328,49 918,49.672 918,50.5 C918,51.328 917.328,52 916.5,52 Z M870,16 L909,16 L909,43 L870,43 L870,16 Z" id="Computer-2" transform="translate(889.500000, 32.500000) rotate(10.000000) translate(-889.500000, -32.500000) "/>
                    <path d="M745.027778,72.4 L721.138889,72.4 L721.138889,72.388 C721.138889,71.068 720.073444,70 718.761944,70 L716.349167,70 C715.037667,70 713.972222,71.068 713.972222,72.388 L713.972222,72.4 L711.583333,72.4 C708.943611,72.4 706.805556,74.548 706.805556,77.2 L706.805556,101.2 C706.805556,103.852 708.943611,106 711.583333,106 L745.027778,106 C747.6675,106 749.805556,103.852 749.805556,101.2 L749.805556,77.2 C749.805556,74.548 747.6675,72.4 745.027778,72.4 L745.027778,72.4 Z M747.416667,101.2 C747.416667,102.5224 746.344056,103.6 745.027778,103.6 L716.361111,103.6 L716.361111,74.8 L745.027778,74.8 C746.344056,74.8 747.416667,75.8776 747.416667,77.2 L747.416667,101.2 Z M731.888889,77.2 C725.293167,77.2 719.944444,82.5736 719.944444,89.2 C719.944444,95.8264 725.293167,101.2 731.888889,101.2 C738.484611,101.2 743.833333,95.8264 743.833333,89.2 C743.833333,82.5736 738.484611,77.2 731.888889,77.2 Z M731.888889,98.8 C726.619,98.8 722.333333,94.4944 722.333333,89.2 C722.333333,83.9056 726.619,79.6 731.888889,79.6 C737.158778,79.6 741.444444,83.9056 741.444444,89.2 C741.444444,94.4944 737.158778,98.8 731.888889,98.8 Z M731.888889,82.9864 C731.463667,82.9864 731.038444,83.0392 730.641889,83.1208 C731.7575,83.4928 732.553,84.5056 732.553,85.7608 C732.553,87.28 731.306,88.5328 729.791444,88.5328 C728.253,88.5328 727.032278,87.28 727.032278,85.7608 C727.032278,85.6 727.032278,85.4392 727.084833,85.3072 C726.208111,86.3728 725.704056,87.7336 725.704056,89.2 C725.704056,92.6392 728.465611,95.4136 731.888889,95.4136 C735.312167,95.4136 738.073722,92.6392 738.073722,89.2 C738.073722,85.7608 735.312167,82.9864 731.888889,82.9864 Z" id="Photo-2" transform="translate(729.500000, 88.000000) rotate(10.000000) translate(-729.500000, -88.000000) "/>
                    <path d="M890.239,184.121 C890.194,184.07 890.17,184.01 890.119,183.962 C889.978,183.839 889.813,183.752 889.669,183.635 C889.531,183.524 889.411,183.401 889.27,183.296 C889.624,181.874 889.804,180.416 889.804,178.94 C889.804,169.049 881.758,161 871.864,161 C866.902,161 862.237,163.109 858.901,166.607 C858.832,166.658 858.751,166.691 858.691,166.757 C858.358,167.117 858.064,167.51 857.761,167.897 C857.722,167.948 857.677,167.996 857.638,168.047 C857.188,168.635 856.771,169.25 856.396,169.892 C856.384,169.916 856.366,169.934 856.351,169.958 C855.178,169.472 853.933,169.22 852.682,169.22 C847.321,169.22 842.962,173.579 842.962,178.94 C842.962,179.549 843.022,180.158 843.142,180.764 C842.977,180.812 842.803,180.83 842.638,180.881 C842.482,180.932 842.35,181.019 842.224,181.112 C836.182,183.191 832,188.807 832,195.383 C832,203.765 838.819,210.584 847.201,210.584 L880.084,210.584 C888.466,210.584 895.285,203.765 895.285,195.383 C895.285,191.039 893.425,186.983 890.239,184.121 L890.239,184.121 Z M880.084,207.584 L847.201,207.584 C840.472,207.584 835,202.112 835,195.383 C835,189.383 839.32,184.334 845.269,183.383 L845.893,183.281 C847.612,183.101 849.382,183.251 851.026,183.794 C851.182,183.845 851.341,183.869 851.494,183.869 C852.124,183.869 852.712,183.47 852.919,182.837 C853.18,182.054 852.751,181.205 851.965,180.944 C850.087,180.326 848.086,180.134 846.115,180.272 C846.019,179.828 845.962,179.381 845.962,178.94 C845.962,175.235 848.974,172.22 852.682,172.22 C853.492,172.22 854.284,172.43 855.052,172.733 C854.86,173.249 854.671,173.768 854.527,174.305 C854.314,175.103 854.788,175.928 855.589,176.141 C855.718,176.174 855.85,176.192 855.976,176.192 C856.639,176.192 857.245,175.748 857.425,175.076 C857.665,174.185 858.013,173.324 858.415,172.49 C858.688,171.917 858.997,171.365 859.339,170.84 C859.372,170.786 859.405,170.732 859.441,170.681 C862.186,166.565 866.854,164 871.864,164 C880.102,164 886.804,170.705 886.804,178.94 C886.804,179.864 886.693,180.776 886.525,181.679 C884.518,180.737 882.337,180.185 880.084,180.185 C879.256,180.185 878.584,180.854 878.584,181.685 C878.584,182.513 879.256,183.185 880.084,183.185 C882.28,183.185 884.413,183.782 886.279,184.88 L886.525,185.042 C887.026,185.354 887.506,185.702 887.959,186.089 C890.692,188.396 892.285,191.771 892.285,195.383 C892.285,202.112 886.813,207.584 880.084,207.584 L880.084,207.584 Z" id="Cloud-2" transform="translate(866.500000, 186.500000) rotate(10.000000) translate(-866.500000, -186.500000) "/>
                    <path d="M245.209695,82.6296251 C246.504473,81.0864029 247.505418,79.6960695 248.121751,78.5135695 C249.583751,75.7137918 248.953084,74.1896806 248.16714,73.4037362 C246.528362,71.7649584 243.56614,72.5986806 239.232695,76.1318473 L215.881307,72.0659584 C214.366751,71.8031806 212.895195,72.3382918 211.908584,73.4443473 C211.091584,74.3569029 210.697418,75.5847918 210.838362,76.8461251 C210.878973,77.2187918 211.091584,77.5460695 211.409307,77.7371806 L228.422973,88.007014 C226.982473,90.0375695 225.716362,91.984514 224.722584,93.5898473 L213.898529,92.393014 C212.82114,92.2735695 211.784362,92.6414584 211.029473,93.3987362 C210.272195,94.1536251 209.904307,95.1999584 210.021362,96.263014 C210.06914,96.6906251 210.341473,97.058514 210.733251,97.2281251 L220.276862,101.372847 L224.481307,110.923625 C224.650918,111.315403 225.018807,111.582958 225.444029,111.630736 C225.568251,111.64507 225.692473,111.649847 225.819084,111.649847 C226.729251,111.649847 227.620307,111.27957 228.267695,110.636958 C229.015418,109.889236 229.37614,108.862014 229.259084,107.810903 L228.04314,96.8076806 C229.562473,95.8640695 231.387584,94.6815695 233.293918,93.339014 L242.378862,111.762125 C242.558029,112.130014 243.047751,112.392792 243.453862,112.438181 C243.616307,112.457292 243.778751,112.46207 243.936418,112.46207 C245.169084,112.46207 246.349195,111.931736 247.170973,111.002458 C247.990362,110.077958 248.374973,108.845292 248.226862,107.617403 L245.209695,82.6296251 L245.209695,82.6296251 Z M213.217695,76.0386806 C213.270251,75.6707918 213.432695,75.3244029 213.688307,75.0377362 C214.135029,74.5384584 214.79914,74.311514 215.470418,74.419014 L236.925029,78.1528473 C236.334973,78.6999029 235.744918,79.2517362 235.111862,79.8847918 C233.255695,81.7409584 231.466418,83.9052918 229.839584,86.072014 L213.217695,76.0386806 L213.217695,76.0386806 Z M226.884529,108.071292 C226.920362,108.39857 226.810473,108.716292 226.58114,108.948014 C226.499918,109.026847 226.406751,109.091347 226.306418,109.143903 L222.276362,99.982514 C222.154529,99.7054029 221.934751,99.488014 221.65764,99.3661806 L212.501029,95.3910695 C212.555973,95.2811806 212.62764,95.1784584 212.718418,95.0876806 C212.923862,94.8798473 213.14364,94.7675695 213.630973,94.7675695 L223.360918,95.8425695 C222.780418,96.8339584 222.419695,97.4813473 222.364751,97.5840695 C222.10914,98.047514 222.190362,98.6256251 222.567807,99.0030695 C222.79714,99.2324029 223.102918,99.3518473 223.411084,99.3518473 C223.606973,99.3518473 223.805251,99.3040695 223.986807,99.2061251 C224.091918,99.1487918 224.763195,98.7761251 225.790418,98.1717362 L226.884529,108.071292 L226.884529,108.071292 Z M245.384084,109.418625 C245.073529,109.769792 244.650695,109.991958 244.199195,110.058847 L235.252807,91.9128473 C237.500751,90.2382362 239.76064,88.3844584 241.686084,86.459014 C242.194918,85.9501806 242.632084,85.4771806 243.090751,84.9946251 L245.854695,107.90407 C245.923973,108.460681 245.754362,108.998181 245.384084,109.418625 L245.384084,109.418625 Z" id="Plane-2" transform="translate(231.500000, 93.500000) rotate(-10.000000) translate(-231.500000, -93.500000) "/>
                    <path d="M199.75175,179.668 L197.468,171.614533 C196.52525,168.2916 193.51025,166 190.079,166 L174.671,166 C171.23975,166 168.22475,168.2916 167.282,171.614533 L164.99825,179.668 C162.11825,180.012533 159.875,182.451467 159.875,185.445733 L159.875,189.620933 C159.875,192.395333 161.801,194.707333 164.375,195.305733 L164.375,196.6 C164.375,198.4768 165.887,200 167.75,200 C169.613,200 171.125,198.4768 171.125,196.6 L171.125,195.466667 L193.625,195.466667 L193.625,196.6 C193.625,198.4768 195.137,200 197,200 C198.863,200 200.375,198.4768 200.375,196.6 L200.375,195.305733 C202.95125,194.707333 204.875,192.395333 204.875,189.620933 L204.875,185.445733 C204.875,182.451467 202.63175,180.012533 199.75175,179.668 L199.75175,179.668 Z M169.4465,172.237867 C170.11025,169.898667 172.259,168.266667 174.671,168.266667 L190.079,168.266667 C192.49325,168.266667 194.642,169.898667 195.3035,172.237867 L197.3915,179.6 L167.3585,179.6 L169.4465,172.237867 L169.4465,172.237867 Z M202.625,189.620933 C202.625,191.5952 201.032,193.2 199.07225,193.2 L165.67775,193.2 C163.718,193.2 162.125,191.5952 162.125,189.620933 L162.125,185.445733 C162.125,183.471467 163.718,181.866667 165.67775,181.866667 L199.07225,181.866667 C201.032,181.866667 202.625,183.471467 202.625,185.445733 L202.625,189.620933 Z M186.875,184.133333 L177.875,184.133333 C177.254,184.133333 176.75,184.641067 176.75,185.266667 C176.75,185.892267 177.254,186.4 177.875,186.4 L186.875,186.4 C187.496,186.4 188,185.892267 188,185.266667 C188,184.641067 187.496,184.133333 186.875,184.133333 Z M197,184.133333 C195.137,184.133333 193.625,185.656533 193.625,187.533333 C193.625,189.410133 195.137,190.933333 197,190.933333 C198.863,190.933333 200.375,189.410133 200.375,187.533333 C200.375,185.656533 198.863,184.133333 197,184.133333 Z M167.75,184.133333 C165.887,184.133333 164.375,185.656533 164.375,187.533333 C164.375,189.410133 165.887,190.933333 167.75,190.933333 C169.613,190.933333 171.125,189.410133 171.125,187.533333 C171.125,185.656533 169.613,184.133333 167.75,184.133333 Z M186.875,188.666667 L177.875,188.666667 C177.254,188.666667 176.75,189.1744 176.75,189.8 C176.75,190.4256 177.254,190.933333 177.875,190.933333 L186.875,190.933333 C187.496,190.933333 188,190.4256 188,189.8 C188,189.1744 187.496,188.666667 186.875,188.666667 Z" id="Car-2" transform="translate(183.500000, 183.000000) rotate(-10.000000) translate(-183.500000, -183.000000) "/>
                    <path d="M59.494119,142.380212 L58.165119,141.888212 C57.547119,141.654212 56.839119,141.690212 56.254119,141.969212 C55.654119,142.251212 55.204119,142.752212 54.982119,143.373212 L54.172119,145.638212 L50.620119,144.327212 L51.118119,142.932212 C51.751119,141.153212 50.836119,139.179212 49.078119,138.525212 L38.839119,134.739212 C37.456119,134.226212 35.551119,133.977212 33.016119,133.977212 C25.132119,133.977212 13.951119,136.422212 13.480119,136.524212 C12.976119,136.635212 12.565119,136.998212 12.391119,137.481212 L10.087119,143.910212 C9.91011903,144.411212 10.006119,144.963212 10.345119,145.374212 C10.684119,145.779212 11.209119,145.971212 11.734119,145.899212 C11.791119,145.890212 17.371119,145.017212 22.987119,145.017212 C26.632119,145.017212 29.443119,145.371212 31.342119,146.076212 C32.626119,146.550212 33.316119,147.132212 33.778119,147.723212 L29.473119,159.597212 L29.320119,159.549212 C28.570119,159.306212 27.766119,159.681212 27.469119,160.407212 L19.630119,179.580212 C18.985119,181.155212 19.027119,182.943212 19.741119,184.482212 C20.455119,186.024212 21.793119,187.209212 23.407119,187.734212 C24.025119,187.938212 24.664119,188.037212 25.309119,188.037212 C28.171119,188.037212 30.625119,186.093212 31.276119,183.300212 L35.983119,163.161212 C36.103119,162.642212 35.923119,162.129212 35.566119,161.772212 L38.086119,154.635212 C39.145119,155.616212 40.444119,156.462212 42.043119,157.212212 C42.904119,157.620212 43.945119,157.635212 44.803119,157.269212 C45.691119,156.897212 46.384119,156.162212 46.702119,155.262212 L47.161119,153.972212 L50.716119,155.289212 L49.897119,157.578212 C49.435119,158.856212 50.095119,160.284212 51.367119,160.755212 L52.708119,161.253212 C53.953119,161.712212 55.429119,161.016212 55.882119,159.759212 L60.970119,145.557212 C61.432119,144.270212 60.766119,142.842212 59.494119,142.380212 L59.494119,142.380212 Z M53.236119,158.247212 L52.888119,158.118212 L54.040119,154.902212 C54.319119,154.125212 53.920119,153.273212 53.149119,152.988212 L46.780119,150.636212 C46.402119,150.498212 45.991119,150.516212 45.628119,150.684212 C45.265119,150.852212 44.983119,151.161212 44.848119,151.536212 L43.873119,154.257212 C43.834119,154.365212 43.750119,154.461212 43.639119,154.503212 C43.639119,154.503212 43.639119,154.503212 43.633119,154.503212 C43.576119,154.503212 43.327119,154.503212 43.321119,154.500212 C40.528119,153.183212 39.403119,151.791212 38.803119,150.858212 C38.491119,150.378212 37.924119,150.093212 37.366119,150.186212 C36.799119,150.249212 36.319119,150.633212 36.127119,151.176212 L33.061119,159.858212 L32.626119,159.699212 L36.856119,148.035212 C37.009119,147.609212 36.964119,147.141212 36.736119,146.754212 C35.743119,145.086212 34.399119,144.009212 32.383119,143.262212 C30.148119,142.437212 26.989119,142.017212 22.987119,142.017212 C19.438119,142.017212 15.976119,142.341212 13.744119,142.602212 L14.932119,139.284212 C17.647119,138.723212 26.638119,136.977212 33.016119,136.977212 C35.686119,136.977212 37.090119,137.292212 37.798119,137.553212 L48.037119,141.339212 C48.262119,141.423212 48.379119,141.684212 48.292119,141.921212 L47.293119,144.711212 C47.017119,145.485212 47.413119,146.340212 48.187119,146.622212 L54.553119,148.977212 C54.928119,149.115212 55.345119,149.100212 55.705119,148.932212 C56.071119,148.761212 56.350119,148.455212 56.485119,148.080212 L57.628119,144.888212 L57.976119,145.017212 L53.236119,158.247212 L53.236119,158.247212 Z" id="Development-2" transform="translate(37.000000, 162.477212) rotate(10.000000) translate(-37.000000, -162.477212) "/>
                    <path d="M600,105.432632 L600,98.2406316 C600,97.0027895 599.0145,96 597.798,96 C597.282,96 596.7825,96.1831579 596.388,96.5189474 L595.0095,98.7290526 C592.512,102.732579 588.177,105.157895 583.518,105.157895 L580.5,105.157895 C578.0145,105.157895 576,107.207737 576,109.736842 C576,111.66 577.167,113.299263 578.8185,113.978474 L580.671,115.863474 C581.0115,116.209947 581.256,116.640368 581.3835,117.112 L583.0305,123.249316 C583.308,124.282632 584.2305,125 585.282,125 C586.7115,125 587.8065,123.704158 587.5905,122.266368 L586.452,114.663789 C589.947,115.451368 593.049,117.600421 595.0095,120.744632 L596.388,122.954737 C596.7825,123.290526 597.282,123.473684 597.798,123.473684 C599.0145,123.473684 600,122.470895 600,121.233053 L600,114.041053 C601.755,113.430526 603,111.736316 603,109.736842 C603,107.737368 601.755,106.043158 600,105.432632 L600,105.432632 Z M580.5,106.684211 L583.5,106.684211 L583.5,112.789474 L580.5,112.789474 C578.8455,112.789474 577.5,111.420368 577.5,109.736842 C577.5,108.053316 578.8455,106.684211 580.5,106.684211 L580.5,106.684211 Z M585,112.884105 L585,106.684211 L583.518,106.684211 C588.2745,106.684211 592.6515,104.432895 595.5,100.633895 L595.5,118.839789 C592.9515,115.439158 589.1775,113.297737 585,112.884105 L585,112.884105 Z M598.5,121.233053 C598.5,121.626842 598.185,121.947368 597.798,121.947368 C597.6915,121.947368 597.5865,121.922947 597.492,121.875632 L597,121.088053 L597,98.3856316 L597.492,97.5980526 C597.5865,97.5507368 597.6915,97.5263158 597.798,97.5263158 C598.185,97.5263158 598.5,97.8468421 598.5,98.2406316 L598.5,121.233053 L598.5,121.233053 Z" id="Marketing-2" transform="translate(589.500000, 110.500000) rotate(10.000000) translate(-589.500000, -110.500000) "/>
                    <path d="M333.734474,182.085911 C333.166684,178.48852 330.117105,175.569824 326.481421,175.142216 C321.418632,174.571564 317.105263,178.496129 317.105263,183.425042 C317.105263,185.222216 317.67,186.93265 318.738421,188.372216 C320.157895,190.286564 320.907316,192.360694 320.907316,194.373955 L320.907316,196.061564 C320.907316,196.286781 321.006526,196.499824 321.179,196.64439 C321.317895,196.760042 321.491895,196.822433 321.670474,196.822433 C321.714737,196.822433 321.759,196.817868 321.803263,196.810259 L329.407368,195.47265 C329.770632,195.408737 330.037737,195.092216 330.037737,194.722433 C330.037737,192.377433 330.738316,190.211998 332.011263,188.626346 C333.494842,186.775911 334.106895,184.452216 333.734474,182.085911 L333.734474,182.085911 Z M330.819211,187.675259 C329.450105,189.38265 328.645737,191.637868 328.526684,194.081781 L322.433632,195.156129 L322.433632,194.373955 C322.433632,192.035042 321.580421,189.645911 319.965579,187.469824 C319.092526,186.291998 318.631579,184.89352 318.631579,183.425042 C318.631579,179.664824 321.701,176.606129 325.472526,176.606129 C325.747263,176.606129 326.023526,176.621346 326.301316,176.653303 C329.273053,177.003303 331.764,179.386346 332.224947,182.321781 C332.531737,184.260477 332.032632,186.16265 330.819211,187.675259 Z M329.120421,196.726564 L321.595684,198.050477 C321.227842,198.11439 320.982105,198.46439 321.047737,198.83265 L321.072158,198.974172 C321.137789,199.342433 321.488842,199.587433 321.856684,199.521998 L329.381421,198.199607 C329.749263,198.134172 329.995,197.784172 329.930895,197.417433 L329.904947,197.27439 C329.840842,196.90765 329.489789,196.66265 329.120421,196.726564 Z M329.120421,199.130911 L321.595684,200.454824 C321.227842,200.518737 320.982105,200.868737 321.047737,201.235477 L321.072158,201.37852 C321.137789,201.745259 321.488842,201.990259 321.856684,201.926346 L329.381421,200.602433 C329.749263,200.53852 329.995,200.18852 329.930895,199.821781 L329.904947,199.678737 C329.840842,199.311998 329.489789,199.066998 329.120421,199.130911 Z M327.627684,201.76352 L323.056368,202.566998 C322.688526,202.630911 322.442789,202.982433 322.506895,203.349172 L322.532842,203.490694 C322.596947,203.858955 322.948,204.103955 323.317368,204.03852 L327.888684,203.235042 C328.256526,203.169607 328.502263,202.819607 328.438158,202.452868 L328.412211,202.311346 C328.348105,201.943085 327.995526,201.698085 327.627684,201.76352 Z M315.578947,183.453955 C315.578947,183.033955 315.237053,182.693085 314.815789,182.693085 L311.763158,182.693085 C311.341895,182.693085 311,183.033955 311,183.453955 C311,183.873955 311.341895,184.214824 311.763158,184.214824 L314.815789,184.214824 C315.237053,184.214824 315.578947,183.873955 315.578947,183.453955 Z M339.236842,182.693085 L336.184211,182.693085 C335.762947,182.693085 335.421053,183.033955 335.421053,183.453955 C335.421053,183.873955 335.762947,184.214824 336.184211,184.214824 L339.236842,184.214824 C339.658105,184.214824 340,183.873955 340,183.453955 C340,183.033955 339.658105,182.693085 339.236842,182.693085 Z M325.5,173.56265 C325.921263,173.56265 326.263158,173.221781 326.263158,172.801781 L326.263158,169.758303 C326.263158,169.338303 325.921263,168.997433 325.5,168.997433 C325.078737,168.997433 324.736842,169.338303 324.736842,169.758303 L324.736842,172.801781 C324.736842,173.221781 325.078737,173.56265 325.5,173.56265 Z M317.405947,190.447868 L315.247737,192.599607 C314.948579,192.897868 314.948579,193.378737 315.247737,193.676998 C315.545368,193.973737 316.027684,193.973737 316.326842,193.676998 L318.485053,191.523737 C318.782684,191.226998 318.782684,190.744607 318.485053,190.447868 C318.187421,190.151129 317.703579,190.151129 317.405947,190.447868 Z M333.594053,176.460042 L335.753789,174.308303 C336.051421,174.010042 336.051421,173.529172 335.753789,173.230911 C335.454632,172.934172 334.972316,172.934172 334.673158,173.230911 L332.514947,175.384172 C332.217316,175.680911 332.217316,176.163303 332.514947,176.460042 C332.812579,176.756781 333.296421,176.756781 333.594053,176.460042 Z M333.594053,190.447868 C333.296421,190.151129 332.812579,190.151129 332.514947,190.447868 C332.217316,190.744607 332.217316,191.226998 332.514947,191.523737 L334.673158,193.676998 C334.972316,193.973737 335.454632,193.973737 335.753789,193.676998 C336.051421,193.378737 336.051421,192.897868 335.753789,192.599607 L333.594053,190.447868 Z M317.405947,176.460042 C317.703579,176.756781 318.187421,176.756781 318.485053,176.460042 C318.782684,176.163303 318.782684,175.680911 318.485053,175.384172 L316.326842,173.230911 C316.027684,172.934172 315.545368,172.934172 315.247737,173.230911 C314.948579,173.529172 314.948579,174.010042 315.247737,174.308303 L317.405947,176.460042 Z" id="Idea-2" transform="translate(325.500000, 186.500000) rotate(-10.000000) translate(-325.500000, -186.500000) "/>
                    <path d="M714.032842,199.902375 L708.896136,199.367098 C709.15543,197.255598 709.059312,195.050709 708.605548,192.852653 L713.342136,191.558875 C713.936724,191.394875 714.292136,190.773042 714.131195,190.162598 C713.972489,189.556709 713.360018,189.208209 712.763195,189.358542 L707.990842,190.661431 C707.2979,188.518042 706.294253,186.570542 705.040253,184.89182 L709.26943,181.780375 C709.770136,181.413653 709.8819,180.702986 709.519783,180.190486 C709.157665,179.682542 708.458018,179.564098 707.961783,179.935375 L703.567195,183.167542 C702.308724,181.862375 700.904959,180.807764 699.3939,180.046986 L700.402018,178.268042 C700.737312,178.354598 701.074842,178.443431 701.432489,178.443431 C701.796842,178.443431 702.161195,178.39332 702.518842,178.297653 C703.598489,178.001542 704.503783,177.295431 705.062606,176.306875 C705.623665,175.31832 705.771195,174.168042 705.482842,173.06332 C704.897195,170.840209 702.541195,169.448486 700.346136,170.042986 C698.115312,170.653431 696.785312,172.999542 697.382136,175.27732 C697.574371,176.003931 697.981195,176.605264 698.472959,177.117764 L697.288253,179.208764 C696.213077,178.887598 695.122253,178.662098 694.011312,178.662098 C693.036724,178.662098 692.066606,178.791931 691.130018,179.047042 C689.080253,179.607375 687.2719,180.748542 685.7899,182.342986 L683.773665,181.158542 C683.950253,180.466098 683.977077,179.72582 683.782606,178.98782 C683.196959,176.762431 680.854371,175.368431 678.648136,175.969764 C676.415077,176.577931 675.087312,178.92632 675.684136,181.199542 C676.173665,183.065042 677.836724,184.367931 679.730018,184.367931 C680.096606,184.367931 680.463195,184.31782 680.818606,184.222153 C681.542842,184.023986 682.157548,183.629931 682.656018,183.12882 L684.386136,184.146986 C683.930136,184.848542 683.512136,185.600209 683.161195,186.417931 C682.841548,187.158209 682.591195,187.934931 682.378842,188.727598 L677.588606,188.228764 C676.985077,188.158153 676.426253,188.618264 676.363665,189.246931 C676.301077,189.871042 676.748136,190.431375 677.362842,190.495153 L681.920606,190.968931 C681.627783,193.146486 681.721665,195.433375 682.191077,197.706598 L678.055783,198.836375 C677.458959,199.000375 677.103548,199.622209 677.264489,200.232653 C677.398606,200.740598 677.850136,201.075431 678.344136,201.075431 C678.440253,201.075431 678.536371,201.061764 678.634724,201.038986 L682.803548,199.89782 C683.523312,202.116375 684.567195,204.134486 685.883783,205.851931 L682.126253,208.614875 C681.625548,208.981598 681.513783,209.692264 681.8759,210.204764 C682.092724,210.512264 682.434724,210.676264 682.78343,210.676264 C683.009195,210.676264 683.237195,210.607931 683.4339,210.459875 L687.383665,207.555709 C690.043665,210.243486 693.360842,211.897153 696.787548,211.897153 C697.7599,211.897153 698.727783,211.76732 699.666606,211.512209 C703.173783,210.553264 706.003665,207.938375 707.63543,204.143598 C707.984136,203.332709 708.256842,202.483098 708.478136,201.610709 L713.807077,202.166486 C713.845077,202.171042 713.883077,202.17332 713.921077,202.17332 C714.488842,202.17332 714.9739,201.735986 715.032018,201.14832 C715.094606,200.524209 714.647548,199.963875 714.032842,199.902375 L714.032842,199.902375 Z M705.5879,203.227931 C704.235548,206.37582 701.926489,208.537431 699.087665,209.309598 C698.338842,209.514598 697.56543,209.619375 696.787548,209.619375 C691.4899,209.619375 686.402371,204.881598 684.636489,198.342098 C684.629783,198.301098 684.638724,198.260098 684.627548,198.219098 C684.618606,198.180375 684.589548,198.153042 684.576136,198.11432 C683.612724,194.358264 683.831783,190.533875 685.208724,187.33132 C686.561077,184.183431 688.870136,182.024098 691.708959,181.249653 C692.457783,181.042375 693.231195,180.939875 694.011312,180.939875 C699.335783,180.939875 704.461312,185.730042 706.198136,192.328764 C707.195077,196.123542 706.978253,199.995764 705.5879,203.227931 Z M699.521312,188.670653 C698.376842,190.189931 696.593077,191.344764 694.500842,191.916486 C692.468959,192.469986 690.408018,192.403931 688.700253,191.722875 C688.119077,191.490542 687.475312,191.782098 687.254018,192.369764 C687.028253,192.957431 687.312136,193.617986 687.888842,193.843486 C689.09143,194.32182 690.423665,194.563264 691.798371,194.563264 C692.878018,194.563264 693.984489,194.412931 695.077548,194.11682 C697.6459,193.415264 699.854371,191.971153 701.296136,190.053264 C701.671665,189.556709 701.577783,188.839209 701.088253,188.45882 C700.596489,188.071598 699.899077,188.17182 699.521312,188.670653 Z" id="Bug-2" transform="translate(695.000000, 190.500000) rotate(10.000000) translate(-695.000000, -190.500000) "/>
                </g>
            </g>
        </g>
    </g>
</svg>